<svg width="128" height="28" viewBox="0 0 128 28" fill="none" xmlns="http://www.w3.org/2000/svg">
<path d="M76.4946 18.462C76.4946 17.6074 77.0974 17.1204 77.9897 17.1204C78.7781 17.1204 79.4009 17.5075 80.6684 18.9509L80.7723 19.0722C79.9419 19.52 78.9877 19.7645 77.9697 19.7645C77.0974 19.7645 76.4966 19.2365 76.4966 18.462M119.323 21.1667H128V19.4985H121.065V14.7794H127.377V13.1111H121.065V8.51519H127.916V6.84696H119.321V21.1667H119.323ZM109.089 19.4985H106.41V8.51519H109.089C112.846 8.51519 115.297 10.8953 115.297 14.0068C115.297 17.1184 112.848 19.4985 109.089 19.4985ZM104.668 21.1667H109.089C113.863 21.1667 117.081 18.0963 117.081 14.0068C117.081 9.91745 113.863 6.84696 109.089 6.84696H104.668V21.1667ZM94.8073 19.7625C91.5472 19.7625 88.9742 17.2005 88.9742 14.0068C88.9742 10.8132 91.5492 8.25117 94.8073 8.25117C98.0643 8.25117 100.639 10.8132 100.639 14.0068C100.639 17.2005 98.0643 19.7625 94.8073 19.7625ZM94.8073 21.4718C99.0826 21.4718 102.426 18.1765 102.426 14.0068C102.426 9.83727 99.0844 6.54187 94.8073 6.54187C90.5292 6.54187 87.1877 9.83727 87.1877 14.0068C87.1877 18.1765 90.5292 21.4718 94.8073 21.4718ZM83.8044 14.0068C83.8044 15.5734 83.1815 16.9972 82.1436 18.0336L81.8122 17.6465C80.4828 16.1015 79.2592 15.4091 77.9717 15.4091C76.1872 15.4091 74.8379 16.5474 74.8379 18.1354C74.8379 18.4209 74.8797 18.7045 74.9836 18.9685C73.2609 17.9515 72.1391 16.121 72.1391 14.0049C72.1391 10.8112 74.714 8.24922 77.9717 8.24922C81.2293 8.24922 83.8044 10.8112 83.8044 14.0049M77.9717 21.4698C79.4668 21.4698 80.858 21.0631 82.0198 20.3512C83.2035 21.4093 83.93 21.4698 85.0499 21.4698H85.6926V19.7605H85.3194C84.6127 19.7605 84.0539 19.6393 83.451 19.2325C84.7804 17.8909 85.5888 16.0604 85.5888 14.0049C85.5888 9.83527 82.2474 6.53992 77.9697 6.53992C73.6921 6.53992 70.3506 9.83527 70.3506 14.0049C70.3506 18.1745 73.6921 21.4698 77.9697 21.4698M66.3644 21.1237H68.109V6.84892H66.3644V21.1276V21.1237ZM51.729 21.1647H53.4736V9.24664L61.6316 21.1256H63.3762V6.84892H61.6316V18.1784L53.9087 6.84892H51.729V21.1686V21.1647ZM43.7565 21.4698C47.0162 21.4698 49.2578 19.3538 49.2578 15.7553V6.84696H47.5132V15.7553C47.5132 18.2781 46.122 19.7625 43.7565 19.7625C41.3912 19.7625 39.9999 18.2781 39.9999 15.7553V6.84696H38.2553V15.7553C38.2553 19.3557 40.4969 21.4698 43.7565 21.4698ZM4.0441 19.3538C3.89838 19.3538 3.77463 19.3948 3.69079 19.4965C3.60695 19.3948 3.4832 19.3538 3.33748 19.3538C3.25364 19.3538 3.1718 19.3734 3.08797 19.4144C3.12988 19.3323 3.14985 19.2521 3.14985 19.1699C3.14985 19.0272 3.10793 18.9059 3.00413 18.8238C3.10793 18.7416 3.14985 18.6204 3.14985 18.4776C3.14985 18.1921 2.92229 17.9691 2.63086 17.9691C2.48515 17.9691 2.36139 18.0102 2.27756 18.1119C2.19372 18.0102 2.06996 17.9691 1.92424 17.9691C1.84041 17.9691 1.75857 17.9887 1.67473 18.0297C1.71665 17.9476 1.7366 17.8675 1.7366 17.7853C1.7366 17.6425 1.69469 17.5213 1.59089 17.4391C1.69469 17.357 1.7366 17.2357 1.7366 17.093C1.7366 17.0108 1.71665 16.9502 1.69469 16.8895C3.60496 15.4854 7.11211 15.5069 9.54134 17.3981C8.192 18.7396 6.15797 19.4926 4.12395 19.3499H4.04011L4.0441 19.3538ZM3.15184 8.79682C3.15184 8.71467 3.13188 8.63449 3.08996 8.55235C3.17381 8.59342 3.25564 8.61298 3.33948 8.61298C3.48519 8.61298 3.60895 8.57191 3.69279 8.47021C3.77662 8.57191 3.90038 8.61298 4.0461 8.61298H4.12994C6.16396 8.47021 8.19799 9.22318 9.54737 10.5648C7.1181 12.456 3.61095 12.4775 1.70068 11.0733C1.72064 11.0126 1.7426 10.952 1.7426 10.8699C1.7426 10.7271 1.70068 10.6058 1.59688 10.5237C1.70068 10.4415 1.7426 10.3204 1.7426 10.1775C1.7426 10.0955 1.72263 10.0152 1.68072 9.93309C1.76455 9.97418 1.84639 9.99373 1.93023 9.99373C2.07595 9.99373 2.19971 9.95264 2.28354 9.85091C2.36738 9.95264 2.49114 9.99373 2.63685 9.99373C2.92829 9.99373 3.15584 9.77073 3.15584 9.48527C3.15584 9.34245 3.11392 9.22118 3.01013 9.13909C3.11392 9.05693 3.15584 8.93567 3.15584 8.7929M25.4104 19.166C25.4104 19.2482 25.4303 19.3284 25.4723 19.4105C25.3884 19.3695 25.3066 19.3499 25.2228 19.3499C25.077 19.3499 24.9532 19.3909 24.8694 19.4926C24.7856 19.3909 24.6619 19.3499 24.5161 19.3499H24.4323C22.3982 19.4926 20.3643 18.7396 19.0148 17.3981C21.4441 15.5069 24.9513 15.4854 26.8615 16.8895C26.8416 16.9502 26.8196 17.0108 26.8196 17.093C26.8196 17.2357 26.8615 17.357 26.9653 17.4391C26.8615 17.5213 26.8196 17.6425 26.8196 17.7853C26.8196 17.8675 26.8396 17.9476 26.8815 18.0297C26.7977 17.9887 26.7158 17.9691 26.632 17.9691C26.4863 17.9691 26.3625 18.0102 26.2787 18.1119C26.1948 18.0102 26.0711 17.9691 25.9253 17.9691C25.634 17.9691 25.4064 18.1921 25.4064 18.4776C25.4064 18.6204 25.4483 18.7416 25.5521 18.8238C25.4483 18.9059 25.4064 19.0272 25.4064 19.1699M24.5141 8.61298C24.6598 8.61298 24.7836 8.57191 24.8675 8.47021C24.9513 8.57191 25.075 8.61298 25.2207 8.61298C25.3046 8.61298 25.3864 8.59342 25.4702 8.55235C25.4284 8.63449 25.4084 8.71467 25.4084 8.79682C25.4084 8.93958 25.4503 9.06084 25.5541 9.143C25.4503 9.22509 25.4084 9.34636 25.4084 9.48918C25.4084 9.77464 25.6359 9.99764 25.9274 9.99764C26.0731 9.99764 26.1968 9.95655 26.2807 9.85482C26.3645 9.95655 26.4883 9.99764 26.634 9.99764C26.7178 9.99764 26.7996 9.97809 26.8835 9.937C26.8416 10.0192 26.8216 10.0994 26.8216 10.1815C26.8216 10.3243 26.8636 10.4455 26.9673 10.5276C26.8636 10.6097 26.8216 10.731 26.8216 10.8738C26.8216 10.9559 26.8416 11.0165 26.8636 11.0772C24.9532 12.4814 21.4461 12.4599 19.0169 10.5687C20.3662 9.22709 22.4003 8.47412 24.4343 8.61689H24.5181L24.5141 8.61298ZM19.7594 24.0104C19.7594 24.1531 19.8013 24.2744 19.9052 24.3565C19.8013 24.4386 19.7594 24.5599 19.7594 24.7026C19.7594 24.7848 19.7794 24.865 19.8212 24.9471C19.7374 24.9061 19.6557 24.8865 19.5717 24.8865C19.426 24.8865 19.3023 24.9275 19.2185 25.0293C19.1347 24.9275 19.0108 24.8865 18.8652 24.8865C18.5737 24.8865 18.3461 25.1095 18.3461 25.395C18.3461 25.5377 18.3881 25.659 18.4919 25.7412C18.3881 25.8233 18.3461 25.9445 18.3461 26.0873C18.3461 26.1695 18.3661 26.2496 18.4081 26.3318C18.3242 26.2907 18.2424 26.2712 18.1586 26.2712C18.0128 26.2712 17.8891 26.3122 17.8052 26.4139C17.7214 26.3122 17.5976 26.2712 17.4519 26.2712C17.3681 26.2712 17.3062 26.2907 17.2444 26.3122C15.8111 24.4406 15.8331 21.0044 17.7633 18.6243C19.1326 19.9464 19.9012 21.9393 19.7554 23.9321V24.0143L19.7594 24.0104ZM8.98445 24.8845C8.90061 24.8845 8.81877 24.9041 8.73494 24.9452C8.77686 24.863 8.79682 24.7828 8.79682 24.7007C8.79682 24.5579 8.7549 24.4367 8.6511 24.3545C8.7549 24.2724 8.79682 24.1512 8.79682 24.0084V23.9263C8.6511 21.9334 9.41956 19.9405 10.7889 18.6185C12.7192 20.9985 12.7412 24.4347 11.3079 26.3064C11.246 26.2868 11.1842 26.2653 11.1004 26.2653C10.9546 26.2653 10.8308 26.3064 10.747 26.4081C10.6632 26.3064 10.5394 26.2653 10.3937 26.2653C10.3099 26.2653 10.228 26.2848 10.1442 26.3259C10.1861 26.2437 10.206 26.1635 10.206 26.0815C10.206 25.9386 10.1642 25.8175 10.0604 25.7353C10.1642 25.6532 10.206 25.5319 10.206 25.3891C10.206 25.1035 9.97852 24.8806 9.68707 24.8806C9.54134 24.8806 9.41761 24.9217 9.33379 25.0234C9.24994 24.9217 9.12618 24.8806 8.98046 24.8806M19.5717 3.08612C19.6557 3.08612 19.7374 3.06656 19.8212 3.02549C19.7794 3.10764 19.7594 3.18782 19.7594 3.26995C19.7594 3.41273 19.8013 3.53398 19.9052 3.61612C19.8013 3.69826 19.7594 3.81952 19.7594 3.96228V4.04442C19.9052 6.0373 19.1366 8.03017 17.7673 9.35227C15.8371 6.97213 15.8151 3.53594 17.2483 1.66432C17.3102 1.68387 17.3721 1.70538 17.4559 1.70538C17.6016 1.70538 17.7254 1.66432 17.8092 1.56262C17.8931 1.66432 18.0168 1.70538 18.1625 1.70538C18.2464 1.70538 18.3282 1.68583 18.412 1.64475C18.3701 1.7269 18.3501 1.80708 18.3501 1.88922C18.3501 2.03199 18.3921 2.15325 18.4959 2.23538C18.3921 2.31753 18.3501 2.43878 18.3501 2.58155C18.3501 2.86708 18.5777 3.09004 18.8692 3.09004C19.0148 3.09004 19.1386 3.04896 19.2225 2.94726C19.3063 3.04896 19.43 3.09004 19.5757 3.09004M8.80081 3.96424C8.80081 3.82147 8.75889 3.70022 8.65509 3.61807C8.75889 3.53594 8.80081 3.41468 8.80081 3.27192C8.80081 3.18977 8.78085 3.10959 8.73893 3.02745C8.82276 3.06852 8.9046 3.08807 8.98844 3.08807C9.13416 3.08807 9.25792 3.04701 9.34177 2.94531C9.42559 3.04701 9.54932 3.08807 9.69505 3.08807C9.98651 3.08807 10.214 2.86513 10.214 2.57959C10.214 2.43683 10.1721 2.31557 10.0684 2.23343C10.1721 2.15129 10.214 2.03004 10.214 1.88726C10.214 1.80513 10.1941 1.72495 10.1522 1.6428C10.236 1.68387 10.3179 1.70343 10.4017 1.70343C10.5474 1.70343 10.6712 1.66236 10.755 1.56066C10.8388 1.66236 10.9626 1.70343 11.1083 1.70343C11.1922 1.70343 11.254 1.68387 11.3159 1.66236C12.7491 3.53398 12.7271 6.97017 10.7969 9.35027C9.42763 8.02822 8.65908 6.03535 8.8048 4.04246V3.96033L8.80081 3.96424ZM11.8109 12.7708C11.9566 12.7708 12.0804 12.7297 12.1643 12.6281C12.2481 12.7297 12.3718 12.7708 12.5175 12.7708C12.6014 12.7708 12.6832 12.7513 12.767 12.7102C12.7252 12.7924 12.7052 12.8725 12.7052 12.9546C12.7052 13.0975 12.7471 13.2187 12.8509 13.3008C12.7471 13.383 12.7052 13.5042 12.7052 13.647C12.7052 13.7897 12.7471 13.911 12.8509 13.9932C12.7471 14.0753 12.7052 14.1965 12.7052 14.3393C12.7052 14.4821 12.7471 14.6034 12.8509 14.6855C12.7471 14.7676 12.7052 14.8889 12.7052 15.0316C12.7052 15.1138 12.7252 15.194 12.767 15.2761C12.6832 15.235 12.6014 15.2155 12.5175 15.2155H12.4976C12.3739 15.2155 12.2481 15.2761 12.1662 15.3583C12.0824 15.2565 11.9587 15.2155 11.8129 15.2155C11.6253 15.2155 11.4816 15.2976 11.3978 15.4189L10.5254 16.2735C7.41152 13.7115 2.63685 13.69 0.207595 16.0095C0.0838363 16.0916 0 16.2325 0 16.4163C0 16.5591 0.0419181 16.6803 0.145716 16.7625C0.0419181 16.8445 0 16.9658 0 17.1086C0 17.2514 0.0419181 17.3726 0.145716 17.4548C0.0419181 17.5369 0 17.6582 0 17.8009C0 18.0865 0.227556 18.3095 0.518987 18.3095C0.664701 18.3095 0.78846 18.2684 0.872296 18.1666C0.956129 18.2684 1.07989 18.3095 1.22561 18.3095C1.30944 18.3095 1.39128 18.2899 1.47512 18.2488C1.4332 18.3309 1.41324 18.4111 1.41324 18.4933C1.41324 18.636 1.45516 18.7573 1.55895 18.8395C1.45516 18.9215 1.41324 19.0428 1.41324 19.1855C1.41324 19.4711 1.64079 19.6941 1.93222 19.6941C2.07794 19.6941 2.2017 19.653 2.28554 19.5513C2.36937 19.653 2.49313 19.6941 2.63884 19.6941C2.72268 19.6941 2.80452 19.6745 2.88836 19.6335C2.84645 19.7155 2.82648 19.7957 2.82648 19.8779C2.82648 20.0206 2.8684 20.1419 2.9722 20.2241C2.8684 20.3062 2.82648 20.4275 2.82648 20.5703C2.82648 20.8557 3.05404 21.0787 3.34547 21.0787C3.49118 21.0787 3.61494 21.0376 3.69877 20.9359C3.78261 21.0181 3.88641 21.0572 3.9902 21.0787C5.27769 21.1805 6.54322 20.977 7.68499 20.4685C7.166 21.5872 6.95841 22.8271 7.0622 24.0885C7.08217 24.1903 7.12409 24.292 7.20792 24.3741C7.10412 24.4563 7.0622 24.5775 7.0622 24.7203C7.0622 25.0058 7.28976 25.2287 7.58119 25.2287C7.72691 25.2287 7.85067 25.1876 7.93451 25.086C8.01834 25.1876 8.1421 25.2287 8.28781 25.2287C8.37164 25.2287 8.45349 25.2092 8.53732 25.1681C8.4954 25.2503 8.47545 25.3305 8.47545 25.4125C8.47545 25.5554 8.51737 25.6766 8.62116 25.7587C8.51737 25.8409 8.47545 25.9622 8.47545 26.1049C8.47545 26.3905 8.703 26.6134 8.99444 26.6134C9.14015 26.6134 9.2639 26.5724 9.34771 26.4706C9.43162 26.5724 9.55535 26.6134 9.70108 26.6134C9.7849 26.6134 9.86677 26.5938 9.95058 26.5527C9.90863 26.6349 9.88867 26.7151 9.88867 26.7973C9.88867 26.94 9.93063 27.0613 10.0344 27.1434C9.93063 27.2255 9.88867 27.3468 9.88867 27.4895C9.88867 27.7751 10.1163 27.9981 10.4076 27.9981C10.5534 27.9981 10.6772 27.957 10.761 27.8553C10.8448 27.957 10.9686 27.9981 11.1143 27.9981C11.26 27.9981 11.3837 27.957 11.4676 27.8553C11.5515 27.957 11.6752 27.9981 11.8209 27.9981C12.0085 27.9981 12.1523 27.9159 12.2361 27.7946C14.6035 25.4145 14.5815 20.7365 11.9667 17.6855L12.8389 16.8309C12.9627 16.7487 13.0465 16.6079 13.0465 16.4241V16.4045C13.0465 16.2833 12.9846 16.1601 12.9008 16.0799C13.0046 15.9977 13.0465 15.8765 13.0465 15.7337C13.0465 15.6516 13.0266 15.5715 12.9846 15.4893C13.0684 15.5304 13.1503 15.5499 13.2341 15.5499C13.3799 15.5499 13.5036 15.5088 13.5875 15.4072C13.6713 15.5088 13.795 15.5499 13.9408 15.5499C14.0865 15.5499 14.2102 15.5088 14.294 15.4072C14.378 15.5088 14.5017 15.5499 14.6474 15.5499C14.7931 15.5499 14.9169 15.5088 15.0007 15.4072C15.0845 15.5088 15.2083 15.5499 15.3541 15.5499C15.4379 15.5499 15.5197 15.5304 15.6036 15.4893C15.5616 15.5715 15.5416 15.6516 15.5416 15.7337C15.5416 15.8765 15.5836 15.9977 15.6874 16.0799C15.5836 16.1621 15.5416 16.2833 15.5416 16.4261C15.5416 16.6099 15.6255 16.7507 15.7492 16.8328L16.6215 17.6875C14.0067 20.7385 13.9847 25.4165 16.3521 27.7966C16.4359 27.9178 16.5796 28 16.7673 28C16.913 28 17.0367 27.9589 17.1205 27.8573C17.2044 27.9589 17.3282 28 17.4739 28C17.6196 28 17.7434 27.9589 17.8272 27.8573C17.911 27.9589 18.0348 28 18.1805 28C18.4719 28 18.6995 27.7771 18.6995 27.4915C18.6995 27.3487 18.6576 27.2275 18.5538 27.1454C18.6576 27.0632 18.6995 26.942 18.6995 26.7992C18.6995 26.7171 18.6796 26.6369 18.6376 26.5547C18.7214 26.5958 18.8033 26.6154 18.8871 26.6154C19.0328 26.6154 19.1566 26.5743 19.2404 26.4725C19.3243 26.5743 19.448 26.6154 19.5937 26.6154C19.8852 26.6154 20.1127 26.3924 20.1127 26.1069C20.1127 25.9641 20.0708 25.8428 19.967 25.7607C20.0708 25.6785 20.1127 25.5573 20.1127 25.4145C20.1127 25.3324 20.0928 25.2522 20.0508 25.1701C20.1347 25.2112 20.2165 25.2307 20.3004 25.2307C20.446 25.2307 20.5699 25.1896 20.6537 25.0879C20.7375 25.1896 20.8612 25.2307 21.0069 25.2307C21.2984 25.2307 21.526 25.0077 21.526 24.7222C21.526 24.5795 21.484 24.4582 21.3803 24.3761C21.4641 24.2939 21.504 24.1922 21.526 24.0905C21.6298 22.8291 21.4221 21.5892 20.9032 20.4705C22.045 20.979 23.3105 21.1824 24.598 21.0806C24.7018 21.0611 24.8055 21.0201 24.8894 20.9379C24.9732 21.0396 25.097 21.0806 25.2427 21.0806C25.5341 21.0806 25.7617 20.8577 25.7617 20.5722C25.7617 20.4295 25.7197 20.3082 25.616 20.226C25.7197 20.1439 25.7617 20.0226 25.7617 19.8799C25.7617 19.7977 25.7417 19.7175 25.6998 19.6354C25.7836 19.6765 25.8655 19.696 25.9493 19.696C26.095 19.696 26.2188 19.655 26.3027 19.5533C26.3865 19.655 26.5102 19.696 26.6559 19.696C26.9474 19.696 27.1749 19.4731 27.1749 19.1875C27.1749 19.0447 27.133 18.9235 27.0293 18.8414C27.133 18.7593 27.1749 18.638 27.1749 18.4952C27.1749 18.4131 27.1549 18.3329 27.1131 18.2507C27.1969 18.2918 27.2788 18.3114 27.3626 18.3114C27.5083 18.3114 27.632 18.2703 27.7159 18.1686C27.7997 18.2703 27.9235 18.3114 28.0692 18.3114C28.3606 18.3114 28.5882 18.0885 28.5882 17.8029C28.5882 17.6601 28.5462 17.5389 28.4425 17.4567C28.5462 17.3745 28.5882 17.2534 28.5882 17.1105V17.091C28.5882 16.9697 28.5263 16.8465 28.4425 16.7664C28.5462 16.6842 28.5882 16.563 28.5882 16.4202C28.5882 16.2364 28.5044 16.0955 28.3805 16.0135C25.9513 13.6939 21.1766 13.7155 18.0628 16.2775L17.1904 15.4228C17.1066 15.3015 16.9628 15.2194 16.7752 15.2194H16.7553C16.6316 15.2194 16.5058 15.28 16.4239 15.3622C16.3401 15.2605 16.2164 15.2194 16.0706 15.2194C15.9868 15.2194 15.905 15.2389 15.8211 15.28C15.863 15.1979 15.883 15.1177 15.883 15.0355V15.016C15.883 14.8947 15.8211 14.7715 15.7372 14.6914C15.8411 14.6092 15.883 14.4879 15.883 14.3452V14.3256C15.883 14.2044 15.8211 14.0812 15.7372 14.001C15.8411 13.9188 15.883 13.7975 15.883 13.6548V13.6353C15.883 13.514 15.8211 13.3908 15.7372 13.3106C15.8411 13.2285 15.883 13.1072 15.883 12.9645C15.883 12.8823 15.863 12.8021 15.8211 12.72C15.905 12.7611 15.9868 12.7806 16.0706 12.7806C16.2164 12.7806 16.3401 12.7395 16.4239 12.6378C16.5077 12.7395 16.6316 12.7806 16.7772 12.7806C16.9649 12.7806 17.1086 12.6985 17.1924 12.5772L18.0647 11.7225C21.1787 14.2845 25.9533 14.3061 28.3826 11.9865C28.5063 11.9045 28.5901 11.7636 28.5901 11.5798C28.5901 11.437 28.5483 11.3158 28.4444 11.2336C28.5483 11.1515 28.5901 11.0303 28.5901 10.8875V10.8679C28.5901 10.7466 28.5283 10.6235 28.4444 10.5433C28.5483 10.4611 28.5901 10.3399 28.5901 10.1971C28.5901 9.91155 28.3626 9.68864 28.0712 9.68864C27.9254 9.68864 27.8017 9.72973 27.7179 9.83136C27.634 9.72973 27.5103 9.68864 27.3645 9.68864C27.2807 9.68864 27.1988 9.70818 27.115 9.74927C27.157 9.66709 27.1769 9.58691 27.1769 9.50482C27.1769 9.362 27.135 9.24073 27.0312 9.15864C27.135 9.07648 27.1769 8.95523 27.1769 8.81246C27.1769 8.52693 26.9493 8.30397 26.658 8.30397C26.5122 8.30397 26.3884 8.34505 26.3046 8.44675C26.2208 8.34505 26.0971 8.30397 25.9513 8.30397C25.8675 8.30397 25.7856 8.32354 25.7018 8.3646C25.7437 8.28246 25.7636 8.20228 25.7636 8.12014C25.7636 7.97737 25.7218 7.85612 25.618 7.77397C25.7218 7.69184 25.7636 7.57058 25.7636 7.42781C25.7636 7.14228 25.5361 6.91933 25.2447 6.91933C25.099 6.91933 24.9752 6.9604 24.8914 7.06209C24.8076 6.97995 24.7037 6.94084 24.5999 6.91933C23.3124 6.81763 22.0469 7.02103 20.9052 7.52951C21.4242 6.41084 21.6317 5.17092 21.5279 3.90948C21.508 3.80778 21.466 3.70608 21.3822 3.62395C21.486 3.5418 21.5279 3.42055 21.5279 3.27778C21.5279 2.99225 21.3004 2.76929 21.009 2.76929C20.8633 2.76929 20.7395 2.81036 20.6556 2.91206C20.5718 2.81036 20.4481 2.76929 20.3023 2.76929C20.2185 2.76929 20.1367 2.78885 20.0528 2.82992C20.0948 2.74778 20.1147 2.6676 20.1147 2.58545C20.1147 2.44269 20.0728 2.32144 19.969 2.2393C20.0728 2.15715 20.1147 2.0359 20.1147 1.89314C20.1147 1.6076 19.8872 1.38465 19.5957 1.38465C19.4501 1.38465 19.3262 1.42572 19.2424 1.52742C19.1586 1.42572 19.0348 1.38465 18.8891 1.38465C18.8052 1.38465 18.7235 1.40421 18.6396 1.44527C18.6815 1.36314 18.7015 1.28295 18.7015 1.20081C18.7015 1.05805 18.6596 0.936791 18.5557 0.854648C18.6596 0.772508 18.7015 0.651254 18.7015 0.508486C18.7015 0.222952 18.474 0 18.1825 0C18.0368 0 17.913 0.0410701 17.8292 0.142767C17.7453 0.0410701 17.6216 0 17.4759 0H17.4559C17.3322 0 17.2064 0.0606273 17.1245 0.142767C17.0407 0.0410701 16.917 0 16.7712 0C16.5837 0 16.4399 0.0821401 16.3561 0.203395C13.9887 2.5835 14.0107 7.26157 16.6255 10.3125L15.7532 11.1672C15.6295 11.2493 15.5456 11.3901 15.5456 11.5739C15.5456 11.7167 15.5876 11.838 15.6914 11.9201C15.5876 12.0023 15.5456 12.1235 15.5456 12.2663C15.5456 12.3484 15.5656 12.4285 15.6076 12.5107C15.5236 12.4696 15.4419 12.4501 15.3581 12.4501H15.338C15.2143 12.4501 15.0885 12.5107 15.0067 12.5928C14.9228 12.4912 14.7991 12.4501 14.6534 12.4501H14.6334C14.5097 12.4501 14.3839 12.5107 14.302 12.5928C14.2182 12.4912 14.0945 12.4501 13.9488 12.4501H13.9288C13.8051 12.4501 13.6793 12.5107 13.5974 12.5928C13.5136 12.4912 13.3899 12.4501 13.2441 12.4501C13.1603 12.4501 13.0785 12.4696 12.9946 12.5107C13.0365 12.4285 13.0565 12.3484 13.0565 12.2663V12.2467C13.0565 12.1255 12.9946 12.0023 12.9108 11.9221C13.0146 11.8399 13.0565 11.7186 13.0565 11.5759C13.0565 11.3921 12.9726 11.2513 12.8489 11.1691L11.9766 10.3145C14.5915 7.26354 14.6134 2.58545 12.246 0.20535C12.1622 0.0840958 12.0185 0.00195572 11.8309 0.00195572C11.6852 0.00195572 11.5614 0.0430258 11.4776 0.144723C11.3938 0.0430258 11.27 0.00195572 11.1243 0.00195572H11.1043C10.9805 0.00195572 10.8548 0.0625829 10.773 0.144723C10.6892 0.0430258 10.5653 0.00195572 10.4196 0.00195572C10.1282 0.00195572 9.90065 0.224907 9.90065 0.510442C9.90065 0.653209 9.9426 0.774464 10.0464 0.856604C9.9426 0.938745 9.90065 1.06 9.90065 1.20276C9.90065 1.28491 9.9206 1.36509 9.96256 1.44723C9.87874 1.40616 9.79687 1.3866 9.71306 1.3866C9.56733 1.3866 9.4436 1.42767 9.35969 1.52937C9.27588 1.42767 9.15212 1.3866 9.00641 1.3866C8.71498 1.3866 8.48742 1.60955 8.48742 1.89509C8.48742 2.03785 8.52934 2.15911 8.63314 2.24125C8.52934 2.32339 8.48742 2.44465 8.48742 2.58742C8.48742 2.66955 8.50739 2.74974 8.5493 2.83188C8.46547 2.79081 8.38363 2.77125 8.29979 2.77125C8.15407 2.77125 8.03032 2.81232 7.94648 2.91402C7.86264 2.81232 7.73888 2.77125 7.59317 2.77125C7.30174 2.77125 7.07419 2.9942 7.07419 3.27974C7.07419 3.42251 7.1161 3.54376 7.2199 3.6259C7.13606 3.70804 7.09614 3.80974 7.07419 3.91144C6.97038 5.17287 7.17798 6.4128 7.69697 7.53146C6.5552 7.02298 5.28967 6.81958 4.00219 6.92128C3.89838 6.94084 3.79459 6.98191 3.71076 7.06405C3.62692 6.96235 3.50316 6.92128 3.35744 6.92128C3.06601 6.92128 2.83845 7.14424 2.83845 7.42977C2.83845 7.57254 2.88037 7.69379 2.98417 7.77593C2.88037 7.85807 2.83845 7.97933 2.83845 8.12209C2.83845 8.20424 2.85842 8.28442 2.90034 8.36655C2.8165 8.32549 2.73466 8.30593 2.65083 8.30593C2.50511 8.30593 2.38135 8.347 2.29751 8.4487C2.21368 8.347 2.08992 8.30593 1.9442 8.30593C1.65277 8.30593 1.42522 8.52888 1.42522 8.81442C1.42522 8.95718 1.46714 9.07844 1.57093 9.16055C1.46714 9.24273 1.42522 9.364 1.42522 9.50673C1.42522 9.58891 1.44517 9.66909 1.48709 9.75118C1.40326 9.71009 1.32142 9.69055 1.23758 9.69055C1.09187 9.69055 0.968113 9.73164 0.884273 9.83336C0.800437 9.73164 0.676678 9.69055 0.530963 9.69055C0.239533 9.69055 0.0119766 9.91355 0.0119766 10.1991C0.0119766 10.3418 0.0538948 10.4631 0.157692 10.5452C0.0538948 10.6274 0.0119766 10.7486 0.0119766 10.8914C0.0119766 11.0342 0.0538948 11.1555 0.157692 11.2375C0.0538948 11.3197 0.0119766 11.4409 0.0119766 11.5837C0.0119766 11.7675 0.0958125 11.9084 0.219572 11.9905C2.64883 14.31 7.4235 14.2885 10.5374 11.7265L11.4097 12.5811C11.4935 12.7024 11.6372 12.7845 11.8249 12.7845" fill="#0C0D10"/>
</svg>
